<svg xmlns="http://www.w3.org/2000/svg" id="Ebene_1" data-name="Ebene 1" viewBox="0 0 48 48"><defs><style>.cls-1{fill:#fff}.cls-2{fill:#284a9a}.cls-3{fill:#e5232a}.cls-4{fill:#058136}.cls-5{fill:#81207d}.cls-6{fill:#f5e83b}.cls-7{fill:#f6a332}</style></defs><path d="m47.31,8H.69C2.33,3.34,6.77,0,12,0h24c5.23,0,9.67,3.34,11.31,8Z" class="cls-3"/><path d="m48,12v4H0v-4l.69-4h46.62c.45,1.25.69,2.6.69,4Z" class="cls-7"/><rect width="48" height="8" y="16" class="cls-6"/><rect width="48" height="8" y="24" class="cls-4"/><path d="m48,32v4c0,1.4-.24,2.75-.69,4H.69c-.45-1.25-.69-2.6-.69-4v-4h48Z" class="cls-2"/><path d="m47.31,40c-1.64,4.66-6.08,8-11.31,8H12c-5.23,0-9.67-3.34-11.31-8h46.62Z" class="cls-5"/><rect width="24" height="24" x="12" y="12" class="cls-1" rx="6" ry="6"/></svg>